<svg xmlns="http://www.w3.org/2000/svg" viewBox="0 0 294 128"><defs><style>.cls-1{fill:#fff;}.cls-2{fill:#b7cecf;}.cls-3{fill:#286b70;}.cls-4{fill:#dadea7;}.cls-5{fill:#074f5d;}</style></defs><g id="Ebene_2" data-name="Ebene 2"><g id="Vertikal"><g id="Tukan"><g id="Globus"><path class="cls-1" d="M64.2,125.1a61,61,0,1,1,60.9-60.9A61,61,0,0,1,64.2,125.1Z"/><path class="cls-2" d="M59,121.8c-.3-.1-.6-.2-.6-.4s-.1-.3-.1-.4a8.8,8.8,0,0,0-2.4-2.2,1.9,1.9,0,0,1-1-1.2c-.2-.3-.4-.7-.5-.7a.4.4,0,0,1-.1-.3,1.2,1.2,0,0,0-.5-.6.7.7,0,0,1-.3-.5c.1-.1.1-.2-.1-.1s-.4,0-.4-.4a3.1,3.1,0,0,0-.9-1.5c-1-1-1.4-2.3-1-2.8a3.9,3.9,0,0,0,.4-.9c0-.3.4-.7.7-1s.8-.7.2-1.7-.4-.9-.3-1.1a8.3,8.3,0,0,0-.8-2,7.5,7.5,0,0,0-2-2.8c-1-1-2.1-2.4-2.1-2.9l.3-.2c.3,0,.4-.2.4-.7a2,2,0,0,1,.3-1.1c.5-.7.2-2.1-.4-1.6a.7.7,0,0,1-.5.3c-.4,0-.3-.6.1-.8s-.2-.5-1.5-.5H44.4l-.8-1.2c-.4-1-.6-1.1-1.3-1.3a14.4,14.4,0,0,0-4.2,0c-1.4.2-1.6.2-2.6-.4a6.5,6.5,0,0,0-2.8-.6c-2-.2-2.2-.3-4-2.6a14.2,14.2,0,0,0-2-2.2c-.6-.6-.8-.9-.7-1s.1-1.4-.5-2.1l-.8-1a4.6,4.6,0,0,0-.7-1,1.3,1.3,0,0,1-.2-1.3c0-.3.1-1,.1-1.6s.1-1.2.4-1.4.8-1.4.6-1.4-.2-.3-.2-.6,0-.7.1-.7.2.2.2.4.3.5.4-.3,0-.9-.1-.8-.3.2.1-1.5a4.2,4.2,0,0,1,1.2-2.5l1.2-1.2a.4.4,0,0,0,.4-.4,1.7,1.7,0,0,1,1.2-1.4,1,1,0,0,0,.8-.6c.3-.4.4-.5.8-.4h.5c0-.2.1-.3.2-.2h.6l.9-.4c.4-.1.5-.3.6-1a3.9,3.9,0,0,1,2.7-2.6,2.6,2.6,0,0,0,1.9-2.4c-.1-.4-.2-.6-.5-.6l-.5-.2-.5-.2c-.5,0-.5-.2-.1-.7a2,2,0,0,0,.2-1.1c-.1-.5,0-.8.5-1.4a5.1,5.1,0,0,0,1-2.9c0-.5.2-.6.9-.8s.9-.1,1.2.1a1.3,1.3,0,0,0,.7.4l.5.2L43,51c1,.3,1,.3,1.4-.1a4.3,4.3,0,0,0,.5-1.2c.1-.8-.1-2.1-.4-2.1s-.2-.2-.2-.3-.1-.4-.3-.4-.3-.4-.3-.8.1-.6.8-.6.9.1,1,.3,0,0-.1-.3,0-.5.2-.4.4.1.5-.1.2-.1.5.1.4.4,1.2.1l.8-.4-.7-.2-2.3-.2H43.7c-.6-.1-.5-.4.2-.5l1-.5c.3-.2.3-.3.1-.5s-.2-.8.3-.8.4-.2.4-.6.1-.5.5-.5.6,0,.6-.5-.1-.5-.1-.2a.5.5,0,0,1-.4.3c-.2,0-.3-.1-.2-.3s0-.2-.3,0a.8.8,0,0,0-.4.7,1.3,1.3,0,0,1-.4.7,4.1,4.1,0,0,1-2.7.5c-.7-.2-.6-1.1.1-1.4s.5-.4.4-.5.5-1.4.9-1.2l.7-.3a1.1,1.1,0,0,1,.8-.2.6.6,0,0,0,.8-.3c.1-.2.1-.4,0-.4s-.2-.4.1-.4.4,0,0-.1-.4-.4.2-1,1.1-.7,1.1-.3.1.2.3,0a.5.5,0,0,1,.6-.1c.1.1.4,0,.6-.2s.5-.4.7-.2.1.4-.5.9-.6.6-.2.6.5.7,0,1.2-.4,1.1.2,2.9.5,2.7.2,2.8-.2.2-.2.2,1.4-.4,1.9-1.2a1.6,1.6,0,0,1,1.6-.7c1.1,0,1.2-.1,1.4-1.6s.3-1.5,1.2-1.8.9-.3,1-.1.1,0,.1-.4-.2-.9-.9-.4a1.7,1.7,0,0,1-1,.3c-.9.1-1.2-.5-1-2.1s.5-2.2,1.5-2.7l.8-.5c0-.1.4-.3.8-.5a4,4,0,0,0,1.4-1.3,3.9,3.9,0,0,1,1.3-1.3c.2-.2.4-.3.4-.4a1,1,0,0,0-.6.2c-.2.1-.5.2-.5.1s1.2-1.4,2-1.8l.9-.6a1.3,1.3,0,0,1,.8-.2c.3,0,.6-.1.6-.2s1.2-.6,2.1-.6a1.7,1.7,0,0,1,1.3.5,1.9,1.9,0,0,0,.8.5c.2,0,.3.1.3.2s.2.2.4.2A7.2,7.2,0,0,1,71,29.2a1,1,0,0,0,.8.5c.5,0,.5,0,.2-.3a1.1,1.1,0,0,1-.3-.7c0-.2-.1-.4-.2-.4s-.2-.1-.2-.3.1-.3.6-.3L73,28c.2.1.5-.1,1.1-.7a3.7,3.7,0,0,1,1.4-1c1.4-.2.6-1.1-.8-.9a3.3,3.3,0,0,1-1.5-.3c-.6-.3-.7-.5-.8-1.3a10.4,10.4,0,0,1-.2-1.5c-.3-1.1-.2-1.7.4-2.1a1,1,0,0,0,.5-.7c0-.2.2-.3.4-.3s.3.3.3.8a14.2,14.2,0,0,0-.1,2.3c0,1.3,0,1.6.4,1.9a5.5,5.5,0,0,0,3.5.6h.8l-.6-.5a1.6,1.6,0,0,1-.5-.9,1.9,1.9,0,0,0-.3-.8,1.3,1.3,0,0,1-.4-1c-.2-.7-.2-.7.3-.6s.6.1.6-.4v-.6l.5.5c.3.4.4.5.4.2s-.1-.4-.2-.4-.2-.2-.1-.5,0-.5-.1-.5-.2-.4-.3-.9-.3-2-.7-2.1-.6-.7,0-.7.5,0,.1-.3l-.6-.4c-.1-.2-.1-.2-.1,0l-1.4.5c-1.4.2-1.8.1-2.4-.6s-.2-.3.4-.2a1.2,1.2,0,0,0,1.2-.2,1.2,1.2,0,0,1,1-.2c.3.1.5.1.5-.1s.3-.2.9-.1,1,.1,1.1-.2.7-.4,2,0,1,.3,1-.1a.8.8,0,0,1,.4-.7c.3-.3.3-.3-.2-.3s-.8-.2-.7-.8.3-.5,1-.5.7,0,.6-.1-.3-.2-.3-.4-2.1-1.3-2.8-.8-2.1.2-2.1-.5-.1-.5-.3-.5-.2-.8.3-.8.5.2.5.4.2.5.3.5a.9.9,0,0,1,.6.3c.4.3.4.3.5,0a.5.5,0,0,1,.5-.3c.3,0,.3-.4,0-.6s-.2-.3-.1-.5-.1-.5-.6-.8-.9-.8-.4-.8-1.6-1-2.4-1.2L72.6,4,69.9,2.7c-.6-.1-.7-.5-.2-.5s.3-.1.3-.2.2-.2.3-.2.3.1.3.2.3.2.6.2l1.2.4c.8.4,2.8.6,2.8.3s.1-.3.4-.2l2.7.7,2.8.7a8,8,0,0,0,2.4.8l1,.3c.6.3.6.3.6,0a.3.3,0,0,1,.3-.3c.1,0,.2.2.2.3a.3.3,0,0,0,.3.3l1.5.5,1.9.6A7.8,7.8,0,0,1,92.2,8c0,.3-2.4-.2-4.3-.9-.2-.1,0,.1.4.3s.8.6.8.8a.2.2,0,0,0,.2.2l1.1.8a18.5,18.5,0,0,0,3,2.1l2.9,1.9c.4.4.7.6.7.4s0-.6-.4-.5-.3.1-.3-.6l-.4-.5c-.6-.5,0-.5,1.4,0s1.9.8,1.5,1-.1.2.1.3h.6c.1-.1.3,0,.5.1l.9.3q.6,0,.6.3c-.1.2.1.3.4.3s2.5,1.7,2.5,2.1-.3.4-.7-.1a2.1,2.1,0,0,0-.8-.6c-.5-.3.7.8,2.5,2.3a12,12,0,0,1,1.9,2.1,27.6,27.6,0,0,0,4.4,4.7l.7.5-.8-1.1c-.8-1.1-.9-1.3-.6-1.3a27.4,27.4,0,0,1,3.7,4.9c-.1.1-.3,0-.4-.1s-.4-.2.1.4.5.8.2.8l-1.1-1.1-1.3-1.1-.6-.4c-.4-.4-.4-.4-.1.3s.3.7.1.7-.1.1-.1.3.1.3-.1.2.1.3.7.7l.5.4v-.6c-.1-1,.3-.7.9.7s1.1,1.9,1.3,1.6.5,0,1.1.8a11.6,11.6,0,0,1,2.6,3.9l1.1,1.6a5.4,5.4,0,0,1,1.3,1.9c.4.9.4,1.4,0,1.2s-.3,0-.1.3a34.3,34.3,0,0,1,1,5.2,4.1,4.1,0,0,0,.5,1.6c.5,1.1.7,3.2.4,3.2s-.4-.4-.5-.9-.4-1.7-.5-1.6a4.6,4.6,0,0,0,.2,1.8,3.5,3.5,0,0,0,1.2,2.4c1.2,1.1,1.5,2.4,1.7,6.1s.1,2.7-.2,2.7a.3.3,0,0,1-.3-.3.3.3,0,0,0-.3-.3.3.3,0,0,1-.3-.3c0-.5-.4-.4-.5.1s0,2.7.3,2.7.2.4.3.9.2.9.5,1.1,1.4,4.2,1,7.3c-.2,1.1-.4,2-.6,2a.5.5,0,0,0-.2.4c0,.2-.1.3-.2.3s-.2-.1-.2-.3A7.6,7.6,0,0,0,123,72c-.3-.1-.2-.5.2-.7s.3-.3-.2-.6a1.1,1.1,0,0,1-.1-1.8c.5-.4.6-.4.9-.2s.4.2.4.1-.5-2.8-.8-2.8-.4-.7-.6-1.6a24.8,24.8,0,0,0-1.3-4.7l-.4-1.3-.2,1.2c-.2,1-.7,1.6-.8,1a6.8,6.8,0,0,1-.3-1.2c-.2-.5-.4-.9-.5-.9l-.9-.7-.9-.7a11.5,11.5,0,0,0-1.5,3.5,5,5,0,0,1-.3,1.4,20.8,20.8,0,0,0-.7,4.4,12.6,12.6,0,0,1-.5,1.5c-.5,1-.5,1.1-.2,1.8a6.5,6.5,0,0,1,.3,1.6c0,1.2.3,2.3.7,2.5a3.3,3.3,0,0,1,1.1,2.1c0,.8-.3,1.6-.8,1.8s-.6-.2-.8-1.4-.4-1.1-.7.1-.4.7-.8.7-.6-.3-1.1-1.2a3.4,3.4,0,0,0-.8-1.2,3.3,3.3,0,0,1-.7-1.1,4.9,4.9,0,0,0-1-1.6,2.7,2.7,0,0,1-.6-1c-.1-.2-.3-.4-.4-.4s-.1-.2-.1-.3-.1-.6-.4-1.1a2.8,2.8,0,0,1-.5-.9c0-.1-.3-.2-.8-.1a2.4,2.4,0,0,1-1.6-.3,2.2,2.2,0,0,0-1-.4.3.3,0,0,1-.3-.3c0-.2-.3-.4-.6-.5s-.7-.2-.8-.4a1.2,1.2,0,0,0-.5-.5.8.8,0,0,0-1,.1,2.9,2.9,0,0,1-1.2.7l-1.2.7a1.1,1.1,0,0,1-.6.3c-.1-.1-.6,0-1.1.2s-2.4.4-2.7,0-.3.3.1,1.1a1,1,0,0,0,1.4.7A1.6,1.6,0,0,1,97,70c.8.4.8.5.7,1.2s-.2,1.1-.3,1.5-.2.8-.4.8-.3.2-.3.7-.1.9-.4,1.1a.8.8,0,0,0-.4.7.7.7,0,0,1-.4.5.7.7,0,0,0-.5.7.9.9,0,0,1-.6.7c-.7.2-2,1.3-2,1.8a3.6,3.6,0,0,1-1.1,1.2A7.4,7.4,0,0,0,89.7,82a10.7,10.7,0,0,1-2.8,1.8l-.7.5a1.9,1.9,0,0,1-1.3.6c-.6,0-.7,0-1.1-.9a4.5,4.5,0,0,1-.8-2.3,3.2,3.2,0,0,0-1.1-1.6,4.4,4.4,0,0,1-1.2-1.4,1.9,1.9,0,0,0-.8-.7c-.5-.2-.7-.5-.9-1.2s-.9-2.3-1.5-2.4a2,2,0,0,1-.8-.8c-.1-.3-.3-.6-.4-.6a.4.4,0,0,1-.3-.4c-.3-.8-1.5-2.1-1.9-1.9s-.3.2-.3.4A8.5,8.5,0,0,0,75.4,74c.2.3.4.6.3.7s.1.8.4.8,1.3,1.3,1.5,2.6a1.5,1.5,0,0,0,.7,1.3,3.6,3.6,0,0,1,1.1,1.3,2.6,2.6,0,0,0,.7,1.1c.1.1.1.1-.1.1s-.2.2-.1.4.5.4.5-.1.1-.3.4-.2.5.2.5.5.3.6.9,1a5,5,0,0,1,2.2,2.2c.2.9.8,1.1,1.9.6l1.3-.6.7-.4A9.9,9.9,0,0,0,91,83.9a.7.7,0,0,1,.6-.3c.3,0,.4.1.4.6a1.5,1.5,0,0,0,.2.8c.2.2.2.3-.1.5a.4.4,0,0,0-.2.5c.1.1-.1.6-.3,1.1a17.4,17.4,0,0,0-1,2.3c-.8,2-1.8,3.4-4.5,6.1s-5.7,6.1-5.1,6.1.2.8-.1.9-.3.1,0,.6a1.2,1.2,0,0,1-.1,1.5c-.3.4-.1,1.3.4,1.4s.4.3.4,2v1.8l-.9.8a5.5,5.5,0,0,1-1.9,1.2,3,3,0,0,0-1.3.7l-1.1.7c-.9.5-1.2.9-.8,1.3a2.4,2.4,0,0,1-.3,2L74,117c-.9.3-1.1.5-1.4,1.1s-.4.9-3.3,2.4-2.9,1.2-6.4,1.3Zm16.2-14.2c-.1-.4-.4.8-.2,1.4s.1.2.2-.3A2,2,0,0,0,75.2,107.6Zm-4.4-2.9c0-.1-.1-.2-.4-.3s-.4,0-.2.2S70.8,105,70.8,104.7Zm3-4.7c.5,0,1-.8.9-1.2s-.3-.3-.7-.2-.6.2-.6.3l-.4.2c-.1,0-.3.3-.3.6s0,.7.3.7.5,0,.5-.2S73.7,100,73.8,100Zm50.3-27.7c-.2-.1-.2-.1-.1.2s.1.5.1.7.1.1.1-.1A1.1,1.1,0,0,0,124.1,72.3Zm-.2-.6q0-.6-.3,0c-.1.2,0,.3.1.3S123.9,71.9,123.9,71.7ZM91.6,70.2c0-.3,0-.3.2-.1s.4.2,1.2-1.4a4.3,4.3,0,0,1,.8-1.2c.2,0,.2-.2.2-.3s-.2,0-.5.3a2.4,2.4,0,0,1-2.9.5,1.4,1.4,0,0,0-1-.2c-.3.1-1.8-1.2-1.8-1.6a.2.2,0,0,0-.2-.2c-.1,0-.1-.1-.1-.2s.1-.2-.1-.2-.2.2-.2.5,0,.4-.2.1-.2-.3-.2,0a.5.5,0,0,1-.3.5c-.1.1-.1.2.2.5a.7.7,0,0,1,.5.6c0,.1.1.2.3.1a1,1,0,0,1,.7.5l.7.9H89c-.2,0-.3.1-.3.2a.5.5,0,0,0,.3.3c.2,0,.3-.2.2-.5s0-.5.4-.4.5.2.7.9.1.7-.1.7-.1.2.1.3S91.6,70.7,91.6,70.2ZM59.9,67a1.3,1.3,0,0,1,.8-1.3c.9-.4,1.8-.4,2.2.1l1.2.5,1.1.3.9.3,1.7.3c.9.2,1.2.1,1.6-.2a4.3,4.3,0,0,1,2.9-.3c1,.2,1.1,0,1.6-2.2s.4-3.3-.3-3.4a.6.6,0,0,0-.7.2,1.4,1.4,0,0,1-1.8.3c-.6-.5-1.3-.6-1.3-.3s-1.1.7-1.6.2-.4-.3-.5.2-.6.8-.6.4a2.7,2.7,0,0,0-.4-.7c-.2-.2-.4-.5-.3-.7s0-.3-.3-.2-.4.1-.4-.2.1-.3.2-.2.2,0,.2-.1-.2-.2-.3-.2-.3-.2-.3-.9a2.8,2.8,0,0,0-.1-1.1c-.1-.1-.1,0-.1.1s-.2.2-.4.2a.3.3,0,0,1-.3-.3c0-.1.1-.3.2-.3s.2-.1.2-.3,0-.3-.4.1a2.1,2.1,0,0,1-1,.6h-.7l.6.6c.3.3.6.5.8.4s.1,0,.1.1.2.6.7,1.1.8.9.5,1.1-.3.3-.2.4,0,.2-.1.2a.5.5,0,0,1-.3-.3.4.4,0,0,0-.5-.2c-.2.1-.3,0-.3-.4s-.6-.8-.8-.4a2.4,2.4,0,0,0-.2.9c0,.3-.1.6-.2.6a.2.2,0,0,1-.2-.2c0-.1-.3-.3-.6-.4s-.7-.4-.7-.7-.1-.4-.3-.4-.6-.4-.3-.6.2-.2.1-.2-.3-.2-.3-.4a1.1,1.1,0,0,0-.2-.6,2.8,2.8,0,0,1-.7-2.1c.1-.5,0-.7-.4-1.1a4.6,4.6,0,0,0-1.3-.8c-.4-.1-.7-.3-.7-.4a1,1,0,0,0-.5-.7c-.7-.8-1.2-1.4-1.2-1.7s-.4-.4-.6.2a1.1,1.1,0,0,0,.3,1,1.5,1.5,0,0,1,.5.8c0,.5.8,1.4,1.3,1.4a.4.4,0,0,1,.4.3c0,.2.4.6.9.9s1.1,1,.8,1.5-.3.3-.7-.1a.9.9,0,0,0-.6-.4c-.2.1-.2.2,0,.4a1.1,1.1,0,0,1,.2.6c0,.4-1,1.6-1.5,1.6s-.3.2-.3.6-.4.8-1,.3l-.4-.3a2.8,2.8,0,0,1-1.3-1.1c0-.4,1-.7,1.2-.4a2.1,2.1,0,0,0,1.9-.2c.3-.4,0-1.2-.6-1.7s-1.5-1.3-1.7-1.3a4.5,4.5,0,0,1-.7-.9l-.9-.8c-.2,0-.3-.1-.3-.2a.2.2,0,0,1,.2-.2c.3,0,.1-.9-.3-1.2a1.2,1.2,0,0,0-1,.1l-1.6.7-1-.4c-.8-.4-1.2-.2-1.2.4s-.3.9-1.4,1.2-2.2,1.4-2.1,1.9-1,1.7-1.3,1.5l-.5.2c-.4.4-.9.4-1.7.2s-1.3-.1-1.3.4.2.6.9.6a1.9,1.9,0,0,1,.9.3c.1.2.4.2.8.1,2.3-.7,2.8-.7,6.7-.3h2.2q1.2,0,1.2.3l.4.2q.3-.1.3.3a.7.7,0,0,1-.3.6c-.2,0-.2.2,0,.5s.6,1.2.3,1.4l-.6.2a.5.5,0,0,0-.5.3c-.1.2,0,.3.1.2s.5.2.9.6.9.8,1.2.8,2.2.8,2.2,1.2.3.5.6.6l1.5.7C59.5,68.2,59.7,68.1,59.9,67Zm4-3.8c-.3-.1-.5-.2-.5-.4s.2-.3,1.5,0S65.8,63.4,63.9,63.2Zm7.4-.1c0-.3.5-.8.7-.7s.3,0,.6-.2.7-.2.3.2-.2.3-.1.3,0,.1-.2.3S71.3,63.4,71.3,63.1Zm-4.9-.5q.3-.6.3,0c0,.2-.1.3-.2.3S66.4,62.8,66.4,62.6Zm-11.1-.7c0-.3.2-.3.3,0s0,.2-.1.2A.2.2,0,0,1,55.3,61.9ZM50.9,58a.6.6,0,0,1,.1-.4v-1c0-.7.1-.9.3-.9s.4-.1.3-.7,0-.8.4-1,.4-.2.4.2a2.4,2.4,0,0,1-.2.9,1.4,1.4,0,0,0,0,.9,2.2,2.2,0,0,1-.3,1.8C51.8,58,51,58.1,50.9,58Zm-4.6-1.3c-.2-.3.1-.6.4-.6a.3.3,0,0,1,.3.3C46.9,56.8,46.5,57,46.3,56.7Zm1.1-.4a.2.2,0,0,1,.2-.2q.4,0,0,.3C47.5,56.4,47.4,56.4,47.4,56.3Zm17.3,4.1q-.3-.3-.3,0c0,.5.3.7.4.4S64.8,60.5,64.7,60.4Zm23-2.9c.3-.3.3-.4.1-1s-.3-.6-.4-.6-.2-.2-.2-.3a3.4,3.4,0,0,0-.4-1,5.1,5.1,0,0,1-.4-1.1.9.9,0,0,0-.3-.5,1.1,1.1,0,0,1-.3-.8c0-.4-.2-.5-.5-.5a1.6,1.6,0,0,1-.9-.5l-.7-.5a1.2,1.2,0,0,1-.6-.5c-.5-.6-1-.8-1.3-.4s-.2.4,0,.7a3.8,3.8,0,0,1,.3,1,2.4,2.4,0,0,0,.3.7,9.4,9.4,0,0,0,2.7,2c.1,0,.2.1.2.3a.3.3,0,0,1-.3.3c-.2,0-.3.2-.2,1.2s.1,1.2.5,1.3l.8.2C86.3,57.8,87.3,57.8,87.7,57.5Zm-20-.6c0-.1-.1-.2-.3-.2s-.2.1-.2.2S67.7,57.2,67.7,56.9Zm2.7-1.3c.8-.6,2.7-.9,2.7-.6s.1.2.2.1h.6c.1.2.9.3,1.6.3s1.5-.1,1.9-.5.4-1-.7-1.6l-1.9-1c-1.2-.6-1.7-.7-2.5,0s-1.2.5-1.2,0a.5.5,0,0,0-.5-.4c-.3-.1-.4-.3-.3-.5s0-.4-.3-.4a.5.5,0,0,1-.5-.3c-.1-.3-.9.7-.9,1.2a1.3,1.3,0,0,1-.4.7,1.2,1.2,0,0,0-.5.9c0,.3,0,.6-.1.6s-.5.9-.2,1.4S69.3,56.2,70.4,55.6ZM74,50.8c.1-.1,0-.4-.1-.5s-1.2.1-1.2.5S73.9,51.2,74,50.8ZM58.9,42.1a1.4,1.4,0,0,1,1.6-.1.2.2,0,0,0,.4.1c0-.2.3-.3.4-.4s.4-.4.5-1a19.4,19.4,0,0,1,.5-2c.3-.9.4-1.1,1-1.2s.5-.2-.6-.3H61.3a1.2,1.2,0,0,1-1,.8c-.4.2-.8.8-.5,1.2s-.3,1-.6,1.3h-.7c-.5,0-.7.3-.3.6s.3.5-.1.5-.3-.1-.3-.2-.2-.2-.5-.2-.5.1-.5.2.1.2.3.2a.3.3,0,0,1,.3.3C57.4,42.5,58.4,42.5,58.9,42.1Zm1.4-2.5a.8.8,0,0,1,.3-.7c.5-.4.5-.2.1.5S60.3,40,60.3,39.6Zm-3.8.5c.3-.1.3-.2.1-.6s-.2-.4-.2-.1a.5.5,0,0,1-.2.6C55.8,40.3,56.1,40.4,56.5,40.1Zm7.4-.7c.2-.5-.3-1-.6-.7s-.3.3-.1.6S63.8,39.8,63.9,39.4Zm8.2-1.5c0-.3-.4-.5-.5-.3a.3.3,0,0,0,.3.5A.2.2,0,0,0,72.1,37.9Zm-6.1-1q.1-.6-.3,0c-.2.2-.2.3-.1.3A.5.5,0,0,0,66,36.9Zm-4-1a4.7,4.7,0,0,0-.1-2.4l-.7.6c-.8.7-1.1,1.6-.6,2A1.1,1.1,0,0,0,62,35.9Zm6.4.2c0-.3-.6-.7-1-.7s-.1.5.2.7S68.4,36.5,68.4,36.1Zm-5.1-3.4c.8-.6.9-1.1.3-1.1a1.2,1.2,0,0,0-1,.9,1.7,1.7,0,0,1-.2.5C62.3,33.4,62.5,33.4,63.3,32.7Zm6.4-.4c-.1-.2-.3-.2-.5-.2s-.2,0,.1.2S69.9,32.5,69.7,32.3Zm1-1.2c0-.3-.1-.4-1-.4s-1,0-1,.4.3.4,1.1.5S70.7,31.5,70.7,31.1Zm40.6-3.8c.1-.1,0-.3-.1-.4s-.3-.2-.2.2S111.2,27.6,111.3,27.3ZM78.1,21.2c-.2-.2-.2-.2-.1.1s.2.4.3.3S78.3,21.4,78.1,21.2Zm24.2-5.8L102,15c-.4-.2-.4-.2-.1.1S102.3,15.6,102.3,15.4ZM87.4,6.9a7.7,7.7,0,0,0-2.7-.8c-.1.1,0,.2,1.5.7S87.4,7.1,87.4,6.9ZM83.2,115.3a7.7,7.7,0,0,1-.1-1,1.5,1.5,0,0,1,.6-1.4c.6-.5.6-.7.5-1.4s.3-2,.8-2a6.4,6.4,0,0,0,2.8-1.5c2.3-2.6,2.3-2.6,2.6-2.2s.6,1.9.2,2.2-.3.2-.3.1-.2.1-.2.4-.1.6-.2.6a.2.2,0,0,0-.2.2,32.3,32.3,0,0,1-2.6,4.2,3.4,3.4,0,0,1-1.7,1.5C84.3,115.4,83.3,115.5,83.2,115.3Zm11.1-5.2.2-.2q.3,0,0,.3C94.4,110.3,94.3,110.2,94.3,110.1ZM45.2,97.3a.2.2,0,0,1,.2-.2q.3,0,0,.3C45.3,97.4,45.2,97.4,45.2,97.3ZM10.4,95.5A67.7,67.7,0,0,1,3.9,80.6,63.6,63.6,0,0,1,1.6,57.1c.4-2.9.7-3.1.7-.3-.1,5.2-.1,7.1.1,7.4a3.4,3.4,0,0,1,.5,1.7,8.2,8.2,0,0,0,.4,1.8,4.1,4.1,0,0,1,.2,1.4c0,.5.2,1.5.3,2.2a10.1,10.1,0,0,1,.4,2.3,23.7,23.7,0,0,0,3.1,7.3,21.2,21.2,0,0,1,1.5,2.8,8.3,8.3,0,0,0,1.1,2c.2,0,.4.4.8,1.8s.4,2-.4,2.9l-.6.8.6,1.6a22.7,22.7,0,0,1,1,3.8A4,4,0,0,1,10.4,95.5ZM94,82.4c.5-.3.9-.3.8,0l-.6.2C93.8,82.6,93.8,82.5,94,82.4ZM82,81c0-.4.5-.3.6.1s-.1.2-.2.2S82,81.2,82,81ZM19.2,73.4a.4.4,0,0,1-.1-.3.5.5,0,0,1,.6.4C19.7,73.7,19.3,73.7,19.2,73.4Zm.7-.8q0-.3.3,0c.1.1,0,.2-.1.2A.2.2,0,0,1,19.9,72.6Zm-1.1-1.3c-.4-.6-.5-.7-.2-.7s.2.1.2.2a1.5,1.5,0,0,0,.4.6c.2.2.3.4.1.4S19,71.6,18.8,71.3ZM120.5,65c-.1,0-.1-.3-.1-.6v-.6l.2.5C120.8,64.9,120.8,65.3,120.5,65Zm-92-1c-.1-.2-.1-.4,0-.4s.3.1.2.4S28.6,64.2,28.5,64Zm1.4-.4c.3-.3.6-.5.7-.4s-.6.9-.9.9S29.6,63.9,29.9,63.6Zm-2.1-.5c0-.1.1-.2.3-.2s.2.1.2.2S27.8,63.4,27.8,63.1Zm1.4-4.8c0-.2.2-.2.3,0s0,.2-.1.2S29.2,58.5,29.2,58.3Zm-3.1-7.8q0-.4.3,0c.1.1,0,.2-.1.2A.2.2,0,0,1,26.1,50.5ZM25,48.8c-.2-.3-.1-.4.2-.2s.2.2.1.3A.2.2,0,0,1,25,48.8ZM4.4,47c0-.3,0-.4.1-.3v.5C4.4,47.4,4.4,47.2,4.4,47Zm.1-1.9A4.9,4.9,0,0,1,5,42.8c.2,0,.1.9-.2,2.1S4.6,45.3,4.5,45.1Zm2.3-7.5a.2.2,0,0,1,.2-.2c.2,0,.2.1.2.2s0,.2-.2.2A.2.2,0,0,1,6.8,37.6Zm.7-1.1c0-.3.6-1.4.7-1.3a3.5,3.5,0,0,1-.6,1.4C7.5,36.6,7.5,36.6,7.5,36.5Zm42.8-1.4a.5.5,0,0,1,.3-.5c.3-.2.4,0,.1.5S50.4,35.4,50.3,35.1Zm-42-.3a.5.5,0,0,1,.2-.4c.1,0,.2,0,.2.1s-.1.3-.2.3S8.3,34.9,8.3,34.8Zm40.3-2.1c0-.3.1-.4.2-.4s.3.1.1.4S48.6,33.2,48.6,32.7ZM21.8,31.4a.8.8,0,0,1,.2-.5c.1-.2.1-.3-.1-.3s-.4-.1-.4-.3.2-.3.4-.2.3-.1-.1-1.4,0-.4.3-.5.5-.2.5-.3H23c.6-.1,2.1-.8,2-1s-.3-.3-.5-.3a.7.7,0,0,1-.8-.9.4.4,0,0,0-.1-.5c-.1-.1-.2.1-.2.3a1.6,1.6,0,0,1-.3.8c-.5.6-.4-.1.1-.9s.5-1.3-.2-1.4-1.1-.2-.5.4.6.5.2,1a1.2,1.2,0,0,1-.6.5c-.2,0-.4.1-.4.2s-.1.3-.4.3-.4.2-.4.3-.3,1.5-.5,1.5-.3.1-.2.2h.7c.5-.1.5-.1.2.2s-.4.4-.4.5-1,.2-1.5-.3a1.1,1.1,0,0,0-.6-.3c-.3,0-.3,0-.2-.4s.5-.5.7-.5l.4-.3c0-.2-.1-.2-.2-.1s-.3-.2-.4-.4-.3-.5-.4-.5a2.7,2.7,0,0,0-1.3,1c.1.1,0,.3-.2.4s-.2,0-.2-.3.1-.3,0-.3-.2-.2-.2-.4-.1-.3-.4,0l-.6.4a4.3,4.3,0,0,0-1.2.9c-.9.7-1.2.9-1.6.8s-.7,0-1.1.5l-.5.6.3-.7c.2-.4,1.2-1.7,2.2-3A61.4,61.4,0,0,1,51.3,2.4C57.1,1.2,64.2.7,67.7,1.2c1,.2,1.6.3,1.3.4a1.1,1.1,0,0,0-.6.3c0,.2-.4.3-.8.3s-1.1.4-.5.5.3.1-.1.1l-.7.3c-.1.2-1.5.3-4.4.3-5,.1-5.4.1-6.8.8l-2.2.6a4.3,4.3,0,0,0-1.5.3l-.9.3c-.5.1-.6.2-.4.4a.4.4,0,0,0,.5,0h.9c.4.2.7.2.8,0s0-.1-.1-.1-.2-.1-.1-.2a2.2,2.2,0,0,1,2.2,0c.4.3.4.3,0,.5a12.8,12.8,0,0,1-3.2.8c-.5.1-.7.2-.8.6S50,8,48.6,8s-3.5.4-3.4.8a1.6,1.6,0,0,0,1.5.1c.8-.7,2.9-.8,2.7-.2s.5.7.6.4a.8.8,0,0,1,.6-.2.4.4,0,0,0,.4-.4c0-.2.1-.3.3-.2l.6.2c.3,0,.3,0,0,.3s-.2.8.6.7.8,0,.7.2.1.2.8.2.9.1,1,.3a.5.5,0,0,0,.4.3.3.3,0,0,1,.3.5c-.1.1.1.3.3.4s.4.4.2.9a1.7,1.7,0,0,1-.8.6h-.5l.5.5a1.6,1.6,0,0,0,.9.5l1.1.3c.5.3.6.5.5.9a1.1,1.1,0,0,1-.3.7c-.2.2-.3.2,0,.2s.2.1.1.2,0,.2.2.2a.3.3,0,0,1,.3.3.3.3,0,0,1-.3.3,5.7,5.7,0,0,0-2.2,1.1c0,.1-.2.1-.4.1s-.4-.1-.2,0,.2.2,0,.5-.3.4-.4.3l-.3.2a.8.8,0,0,1-.6.4c-.5.1-.8.5-.6.9s-.4.4-1.1.5l-.5.3-.6.2a5.5,5.5,0,0,0-1.9,1.8c0,.1-.2.1-.4.1s-.4-.1-.4,0-1.5.6-1.9.5a10.4,10.4,0,0,0-4.3-.1,2.7,2.7,0,0,1-1.4-.1c-.2-.2-.4-.2-1,.1s-.8.3-.8.4-.2.2-.6.3a6.3,6.3,0,0,0-2.1.7c-1.6.9-1.9.9-1.7.3a4.3,4.3,0,0,0,.2-1.1c0-.9.7-1.8,2.6-3.5s4.3-2.9,4.3-2.2h.6c.4-.1.5-.2.1-.4s-.3-.3.1-.6a1.4,1.4,0,0,1,.9-.3c.5.1.6,0,.7-.3a6.8,6.8,0,0,1,1.9-1.2c2-.9,2.8-1.6,2.6-2.2s.1-.5.8-.9l1-.4h.5c.2-.1.6,0,1.1.3s.8.4.9.2-1.2-1-4.7-1.2c-.6,0-.6-.5.1-1.3s.4-.6.2-.6l-.5.2c0,.2-.3.1-.6-.1s-.7-.3-1.9-.1a6,6,0,0,0-2,.6l-1,.4c-.2,0-.3.1-.2.2s.9.3,1.6-.2,3.1-.8,3.5-.4-.8,1.7-2.1,2.4a5.8,5.8,0,0,0-1.2.8.5.5,0,0,1-.4.3.3.3,0,0,0-.3.3c0,.3-1.7,1.2-2.2,1.2l-.9.6c-1.3,1.6-1.4,1.7-2.3,1.6H37l.7-.6c.3-.3.6-.6.6-.7s-.9.4-1.5,1a3.4,3.4,0,0,1-1.5.9c-.5.2-.7.2-.5,0s.2-.6-.2-.3-.7.4-.2-.5A9.6,9.6,0,0,1,35.8,16a4.1,4.1,0,0,0,1-1.4,2,2,0,0,1,.8-.8c.7-.2.7-.2.7.1a.5.5,0,0,0,.9.3c.1-.2.2-.2.2,0s.1.3.2.3.2-.2.1-.5,0-.4.4-.6l.7-.5c.1-.2.5-.3.8-.3l.4-.2H39.6a1.9,1.9,0,0,0-1.8.5c-.5.4-1,.6-1.1.5s0-.2.2-.4.3-.3.2-.4.4-1,.8-.8.9-.1.5-.5a.9.9,0,0,0-.5-.3.5.5,0,0,1-.4-.3c-.3-.4-1.4-.4-2.1,0l-1.2.6-1.6,1.1L30.9,14a3.8,3.8,0,0,0-1.1,1.2,1.7,1.7,0,0,1-.9.7,8.3,8.3,0,0,0-1.2.8l-1.3.9c-.4.2-.5.3-.2.4s.3.1.3,0a.2.2,0,0,1,.2-.2,2.8,2.8,0,0,0,1-.6c.4-.2.8-.4.9-.3s2.1-.1,2.9-.9a1.1,1.1,0,0,1,.9-.4l.8-.2,2.1-.7c.1,0,0,.2-.2.4s-.3.6-.2.6-.2.4-.6.8a2.1,2.1,0,0,0-.7.8c0,.2-.4.4-.8.6s-1.7,1.1-1.7,1.4h1c.8-.1.9-.1.6.1l-3.5,3.1a3.9,3.9,0,0,0-1,1.6c-.2.4-.4.8-.4.7s-.3.2-.4.5-1.6,1.9-1.9,1.6-.2-.1-.1.1-.1.4-.5.6-.7.3-.7.5-.1.3-.2.3-.2.1,0,.3.1.7-.6,1.3-.4.5-.3.5-.1.2-.4.5S21.8,31.8,21.8,31.4Zm-2.2-8.8c.1-.4,0-.5-.1-.4a2.9,2.9,0,0,0-.4.8c-.1.5,0,.6.1.5A3.9,3.9,0,0,0,19.6,22.6Zm-.6-.4c0-.3,0-.5-.2-.4s-.2.9,0,.9S19,22.5,19,22.2Zm2.2-2c.5-.4.1-.5-.4,0s-.4.5-.1.5S21,20.5,21.2,20.2Zm1.3-1.8c.1-.3-.1-.3-.5,0s-.3.2,0,.2Zm2-1.3c.3-.3.5-.7.4-.8s0-.2.2-.1.2.1.1-.1-.4-.3-.7.1l-.7.9c-.3.4-.6.7-.6.9S23.4,18.1,24.5,17.1Zm18.3-4.5a.5.5,0,0,0-.4-.2c-.1,0-.1.1,0,.2l.3.2C42.8,12.8,42.8,12.7,42.8,12.6Zm8.5-2.5c.3,0,.3,0,.1.2s-.3.2,0,.2a.9.9,0,0,0,.6-.3c.2-.2.1-.3-.2-.4s-1.1.1-1,.5,0,.2.1.1S51.1,10.1,51.3,10.1ZM45.2,8.2c.2,0,.4-.1.4-.3s0-.4-.8.1-.6.5-.6.7a.2.2,0,0,0,.4-.1C44.8,8.4,45,8.2,45.2,8.2Zm2.3-1.8c.1-.1.1-.2,0-.2a.5.5,0,0,0-.4.2c0,.1,0,.2.1.2Zm1.8-1.7c0-.1-.1-.2-.3-.2s-.3.1-.3.2.1.2.3.2S49.3,4.8,49.3,4.7ZM44.3,29a.5.5,0,0,0-.3-.4c-.4-.2-.4-.5,0-.5a.3.3,0,0,0,.3-.3c0-.2-.1-.3-.2-.3s-.2-.1-.1-.2h.5c.2.1.3.1.2-.2s.1-.7.7-.7.4.1.3.4,0,.4.4.4l1.2.2c.7.2.8.3.7.9s-.7,1.2-2.4,1.2S44.3,29.3,44.3,29Zm28.6-1.6c-.3-.3-.2-.7.2-.7s.4.1.4.4A.4.4,0,0,1,72.9,27.4ZM61.6,21.5a1.1,1.1,0,0,1-.3-.7c0-.2-.1-.3-.2-.3s-.3-.9,0-1.2.4-.3.8-.2.7,0,.7-.1,1.4-.1,1.6.1-.4.8-.7.6-.4.3,0,.8.3.8-.3.7-.3-.1-.3-.4-.2-.4-.7.4S61.8,22,61.6,21.5ZM33.7,18.8a.4.4,0,0,1,.4-.2q0,.1-.3.3C33.5,19,33.5,19,33.7,18.8Zm42.9-.3c-.3-.5-.1-.5.3-.1s.3.4.2.4Zm-9.2,0c-.2-.1-.2-.3.1-.5s.4-.3.6-.1.2.3.1.4h.2c.2,0,.2-.3.2-.7s0-.7.5-.5.6.2.7,0a.2.2,0,0,1,.3,0c.1.1,0,.2-.1.2s-.2.1-.1.3,0,.2-.1.2-.2,0,0,.2.2.2-.1.2a.6.6,0,0,1-.6-.3c0-.1-.1-.1-.1.1S68.1,18.7,67.4,18.5ZM29.5,16.3l.6-.3c.4-.1.4-.1.1.2S29.3,16.6,29.5,16.3Zm5.3-2.1c.4-.2.7-.2.5,0s-.3.2-.5.2S34.5,14.4,34.8,14.2Zm1-1,.3-.2.4.2c0,.1-.2.2-.4.2S35.8,13.3,35.8,13.2ZM54.3,9.6h.4c.2.1.1.2-.1.2Zm-1.4-.3c-.2-.1-.3-.2-.2-.3s2.1-.2,2,0A3.6,3.6,0,0,1,52.9,9.3Zm1.4-1c-.4-.2-.3-.5.2-.4s.5.1.4.2S54.7,8.4,54.3,8.3Zm-2.9-.1.4-.7a3,3,0,0,1,1.6-.6L55,6.7c.4-.1.5-.1.5.1s-.5.9-.8.7H53.5c-.8.1-.9.2-.6.3s.4.2-.1.2l-1,.2ZM71.2,4.4a.6.6,0,0,1,.6,0c.2,0,.1.1-.2.1Z"/><path d="M63.8,3.9A60.3,60.3,0,1,1,3.6,64.2,60.3,60.3,0,0,1,63.8,3.9m0-3.6a63.9,63.9,0,1,0,63.9,63.9A63.9,63.9,0,0,0,63.8.3Z"/></g><g id="Logo-Text"><path d="M153.1,37.3h6.2V59.6h11.9v5.5H153.1Z"/><path d="M176.9,37.3h6.3V65.1h-6.3Z"/><path d="M188.3,37.3H195l7.6,21,7.6-21h6.5l-11,27.8h-6.5Z"/><path d="M221.7,37.3H228V65.1h-6.3Z"/><path d="M255.3,37.3h6V65.1h-5.7L242.1,47.3V65.1h-6V37.3h5.7l13.5,18Z"/><path d="M288,51.1h5.4V61.9a15.4,15.4,0,0,1-5.3,2.6,17.8,17.8,0,0,1-5.9,1,16.1,16.1,0,0,1-7.6-1.8,14.7,14.7,0,0,1-5.3-5.2,14,14,0,0,1-1.9-7.3,13.9,13.9,0,0,1,7.4-12.4,15.4,15.4,0,0,1,7.7-1.9,18.3,18.3,0,0,1,6.1,1.1,21.4,21.4,0,0,1,5.1,3l-3.6,4.5a11.8,11.8,0,0,0-3.5-2.3,11.9,11.9,0,0,0-4.1-.8,9.3,9.3,0,0,0-4.4,1.1,9.1,9.1,0,0,0-4.3,7.7,8.9,8.9,0,0,0,1.2,4.5,9.5,9.5,0,0,0,3.1,3.2,8.9,8.9,0,0,0,4.5,1.2,8.5,8.5,0,0,0,2.6-.5,9.6,9.6,0,0,0,2.8-1.1Z"/><path d="M151.8,69.4H173v5.2H158.1v6h13.4v5.2H158.1v6.1h15.3v5.2H151.8Z"/><path d="M200.8,97.1l-2.2-5.4H185.8l-2.2,5.4h-6.5l12.1-27.7h6.5l11.8,27.7Zm-13-10.4h8.8l-4.4-10.8Z"/><path d="M229.5,97.1l-4.4-7.9h-6.4v7.9h-6.3V69.4h12.1c3.6,0,6.4.8,8.4,2.5s2.9,4,2.9,7.1a10.4,10.4,0,0,1-1.3,5.5,8.9,8.9,0,0,1-3.9,3.5l6,9.1ZM218.7,84h5.8a6.2,6.2,0,0,0,4-1.2,4.6,4.6,0,0,0,1.4-3.6,4.5,4.5,0,0,0-1.4-3.5,6.8,6.8,0,0,0-4-1.1h-5.8Z"/><path d="M240.4,69.4h23.2v5.3h-8.5V97.1h-6.3V74.7h-8.4Z"/><path d="M268.9,69.4h6.3V81h12.6V69.4H294V97.1h-6.2V86.2H275.2V97.1h-6.3Z"/><path class="cls-3" d="M191.2,102.3a3.8,3.8,0,0,1,1.2,3,4.2,4.2,0,0,1-1.2,3.2,5.5,5.5,0,0,1-3.6,1.1h-3v3.8h-1.7V101.2h4.7A5,5,0,0,1,191.2,102.3Zm-1.2,5.1a2.6,2.6,0,0,0,.8-2,2.5,2.5,0,0,0-.8-2,3.6,3.6,0,0,0-2.4-.7h-3v5.4h3A4.3,4.3,0,0,0,190,107.4Z"/><path class="cls-3" d="M203.4,113.4l-2.4-3.8h-3.8v3.8h-1.7V101.2h4.8a5.2,5.2,0,0,1,3.6,1.1,3.8,3.8,0,0,1,1.3,3,4.9,4.9,0,0,1-.7,2.5,4.3,4.3,0,0,1-2,1.5l2.8,4.1Zm-3.1-5.3a4.3,4.3,0,0,0,2.4-.7,2.3,2.3,0,0,0,.8-2,2.2,2.2,0,0,0-.8-2,3.6,3.6,0,0,0-2.4-.7h-3.1v5.4Z"/><path class="cls-3" d="M217.6,101.9a6.1,6.1,0,0,1,2.3,2.2,5.9,5.9,0,0,1,.9,3.2,5.6,5.6,0,0,1-.9,3.1,6.3,6.3,0,0,1-2.3,2.3,7.3,7.3,0,0,1-3.3.8,7.2,7.2,0,0,1-3.2-.8,6.3,6.3,0,0,1-2.3-2.3,5.6,5.6,0,0,1-.9-3.1,5.9,5.9,0,0,1,.9-3.2,6.1,6.1,0,0,1,2.3-2.2,7.2,7.2,0,0,1,3.2-.8A7.3,7.3,0,0,1,217.6,101.9Zm-5.6,1.3a4.6,4.6,0,0,0-1.7,1.7,4,4,0,0,0-.7,2.4,3.9,3.9,0,0,0,.7,2.3,4.9,4.9,0,0,0,1.7,1.8,4.8,4.8,0,0,0,2.4.6,4.6,4.6,0,0,0,2.3-.6,4.9,4.9,0,0,0,1.7-1.8,4.8,4.8,0,0,0,.7-2.3,4.8,4.8,0,0,0-.7-2.4,4.6,4.6,0,0,0-4-2.3A4.8,4.8,0,0,0,212,103.2Z"/><path class="cls-3" d="M227.9,112.5a4.1,4.1,0,0,1-2.7,1,4.1,4.1,0,0,1-1.9-.5,4.8,4.8,0,0,1-1.6-1.3l.9-1.3a4.1,4.1,0,0,0,1.2,1.1,3.5,3.5,0,0,0,1.4.3,2,2,0,0,0,1.4-.5,2.3,2.3,0,0,0,.5-1.7v-6.9h-4.3v-1.5h6v8.5A4.1,4.1,0,0,1,227.9,112.5Z"/><path class="cls-3" d="M232.9,101.2h8.5v1.5h-6.8v3.8h6.1V108h-6.1v3.9h7v1.5h-8.7Z"/><path class="cls-3" d="M252.4,103a4.1,4.1,0,0,0-1.9-.4,5,5,0,0,0-2.4.6,4.6,4.6,0,0,0-1.7,1.7,4.8,4.8,0,0,0-.6,2.4,4.6,4.6,0,0,0,2.3,4,5.1,5.1,0,0,0,2.4.7,5,5,0,0,0,3.5-1.5l1,1.1a6,6,0,0,1-2.1,1.4,7,7,0,0,1-2.5.5,6.1,6.1,0,0,1-5.5-3.1,6.5,6.5,0,0,1-.8-3.1,5.9,5.9,0,0,1,.9-3.2,5.4,5.4,0,0,1,2.3-2.2,6.6,6.6,0,0,1,3.2-.8,5.6,5.6,0,0,1,2.5.5,5.3,5.3,0,0,1,2,1.3l-1,1.2A3.6,3.6,0,0,0,252.4,103Z"/><path class="cls-3" d="M256.7,101.2h9.5v1.5h-3.9v10.7h-1.7V102.7h-3.9Z"/></g><g id="Tukan-2" data-name="Tukan"><path id="Vofel-White" class="cls-1" d="M61.7,24.2S56.2,7.5,84.3,1.8c26.4-5.3,36.9,2.7,36.9,2.7s13.1,11.9,11.5,24L131,40.9s13.2,2.3,10.7,21.1c-3.7,27.2-29.1,62.4-29.1,62.4S105,116,106.4,106s11.9-18.5,11.9-18.5a42.8,42.8,0,0,1-17.8-23,32.6,32.6,0,0,1-2-11.4s-4.8-7.3.4-19.3c4.1-9.4,8.7-12,8.7-12a22.5,22.5,0,0,1-15.4,3.7c-9-1.3-16.3-4.1-19.8-4.6s-7.3-.7-7.3-.7-.9-.6-1.9,1.1A27.8,27.8,0,0,0,61.7,24.2Z"/><g id="Vogel-color"><path class="cls-4" d="M119.3,6.1l-.6-.5a5.3,5.3,0,0,0-2.8-1.4,5.5,5.5,0,0,0-6.3,4.6l-2,13h0l-.5.4c-1.3.9-4.9,4.1-8.2,11.6-4.7,10.7-1.3,17.7-.5,19.1l3.4-.2a28.2,28.2,0,0,0,24.4-31.4A29.2,29.2,0,0,0,119.3,6.1Z"/><circle id="Auge" cx="115" cy="10.4" r="3.5"/><path class="cls-5" d="M106.4,21.2h.1l.7-5c-7-.8-17.6-1.9-22.4-1.3L83,15c-6.2.8-12.2,1.5-16.7,5.2l4.3.5,1.8.2c3.5.5,10.8,3.3,19.8,4.6A22.1,22.1,0,0,0,103.4,24a22.1,22.1,0,0,1,2.9-2.8Z"/><path class="cls-5" d="M61.6,24.1a4.1,4.1,0,0,0,.5-.9,30.5,30.5,0,0,1,2.5-3.1A18.1,18.1,0,0,1,71.5,16L73.1,5.3C58.7,12,61.3,22.9,61.6,24.1Z"/><path class="cls-3" d="M131,40.9s.6-4.6,1.7-12.4c1.6-12.1-11.5-24-11.5-24a22.9,22.9,0,0,0-7.3-3C108,0,98.4-1,84.3,1.8l-2.9.7a35.9,35.9,0,0,0-7,2.3L72.8,15.6a53.2,53.2,0,0,1,10.1-1.8l1.8-.2c5-.7,15.7.5,22.7,1.3l1-6.3A6.8,6.8,0,0,1,114.2,3a6,6,0,0,1,1.9,0,6.5,6.5,0,0,1,3.4,1.7h.1a1.8,1.8,0,0,1,.5.7,29.2,29.2,0,0,1,7.3,15.8A29.4,29.4,0,0,1,102,53.9l-3.5.2a34.2,34.2,0,0,0,2,10.4,42.8,42.8,0,0,0,17.8,23s-10.6,8.6-11.9,18.5,6.2,18.4,6.2,18.4S138,89.2,141.7,62C144.2,43.2,131,40.9,131,40.9Z"/></g></g></g></g></g></svg>